<?xml version="1.0" encoding="iso-8859-1"?>
<!-- Uploaded to: SVG Repo, www.svgrepo.com, Generator: SVG Repo Mixer Tools -->
<svg height="800px" width="800px" version="1.1" id="Layer_1" xmlns="http://www.w3.org/2000/svg" xmlns:xlink="http://www.w3.org/1999/xlink" 
	 viewBox="0 0 512 512" xml:space="preserve">
<circle style="fill:#FF6262;" cx="256" cy="256" r="256"/>
<path style="fill:#E54141;" d="M370.135,133.413l-62.13,58.802l-6.034,44.822l-96.539-96.539l1.724,177.562l6.896,45.684
	l11.205,15.515l29.306,18.101l1.724,27.582l0.862,8.62L256,447.247l58.123,58.123c107.975-25.067,189.733-118.456,197.287-232.146
	L370.135,133.413z"/>
<path style="fill:#53575B;" d="M300.291,345.822c-2.381,0-4.31,1.929-4.31,4.31v2.579c0,11.078-6.154,21.035-16.186,26.052
	l-23.797,12.871l-23.919-12.934c-9.907-4.953-16.062-14.91-16.062-25.988v-2.579c0-2.381-1.929-4.31-4.31-4.31
	s-4.31,1.929-4.31,4.31v2.579c0,14.364,7.98,27.276,20.704,33.635l23.588,12.757v43.834c0,2.381,1.929,4.31,4.31,4.31
	s4.31-1.929,4.31-4.31v-43.834l23.464-12.691c12.847-6.423,20.826-19.335,20.826-33.699v-2.579
	C304.6,347.753,302.671,345.822,300.291,345.822z"/>
<path style="fill:#444749;" d="M300.291,345.822c-2.381,0-4.31,1.929-4.31,4.31v2.579c0,11.078-6.154,21.035-16.186,26.052
	l-23.797,12.871l-0.574-0.31v55.863c0.19,0.026,0.378,0.059,0.574,0.059c2.381,0,4.31-1.929,4.31-4.31v-43.834l23.464-12.691
	c12.847-6.423,20.826-19.335,20.826-33.699v-2.579C304.6,347.753,302.671,345.822,300.291,345.822z"/>
<path style="fill:#FFFFFF;" d="M164.955,121.644c-19.22,0-34.8,20.775-34.8,46.401s15.581,46.401,34.8,46.401
	c9.711,0,23.516-5.31,34.8-13.862v143.222c0,5.435,4.406,9.844,9.842,9.844l0,0c5.435,0,9.842-4.406,9.842-9.844V168.045
	C219.441,142.419,184.175,121.644,164.955,121.644z"/>
<path style="fill:#53575B;" d="M149.137,189.137L149.137,189.137c-4.272,0-7.733-3.462-7.733-7.733v-26.717
	c0-4.272,3.462-7.733,7.733-7.733l0,0c4.272,0,7.733,3.462,7.733,7.733v26.715C156.87,185.673,153.409,189.137,149.137,189.137z"/>
<path style="fill:#D3D3D3;" d="M347.045,121.644c19.22,0,34.801,20.775,34.801,46.401s-15.581,46.401-34.801,46.401
	c-9.711,0-23.516-5.31-34.8-13.862v143.222c0,5.435-4.406,9.844-9.842,9.844l0,0c-5.435,0-9.842-4.406-9.842-9.844V168.045
	C292.559,142.419,327.825,121.644,347.045,121.644z"/>
<path style="fill:#53575B;" d="M362.863,189.137L362.863,189.137c4.272,0,7.733-3.462,7.733-7.733v-26.717
	c0-4.272-3.462-7.733-7.733-7.733l0,0c-4.272,0-7.733,3.462-7.733,7.733v26.715C355.13,185.673,358.591,189.137,362.863,189.137z"/>
</svg>